<svg width="70" height="79" viewBox="0 0 70 79" fill="none" xmlns="http://www.w3.org/2000/svg">
<g filter="url(#filter0_d_2935_714)">
<g filter="url(#filter1_dd_2935_714)">
<path d="M16 37.5C16 29.4919 22.4919 23 30.5 23C38.5081 23 45 29.4919 45 37.5C45 45.5081 38.5081 52 30.5 52C22.4919 52 16 45.5081 16 37.5Z" fill="#8130A7"/>
<path d="M16 37.5C16 29.4919 22.4919 23 30.5 23C38.5081 23 45 29.4919 45 37.5C45 45.5081 38.5081 52 30.5 52C22.4919 52 16 45.5081 16 37.5Z" stroke="black"/>
</g>
<path d="M31.8977 35.824C33.1137 35.824 34.1324 35.9947 34.9537 36.336C35.7857 36.6667 36.4044 37.12 36.8097 37.696C37.2257 38.2613 37.4337 38.896 37.4337 39.6C37.4337 41.2 36.8737 42.3627 35.7537 43.088C34.6444 43.8027 33.1564 44.16 31.2897 44.16C29.7217 44.16 28.3404 43.8987 27.1457 43.376C25.9617 42.8427 25.103 41.952 24.5697 40.704C25.1564 40.6187 25.7964 40.48 26.4897 40.288C27.1937 40.096 27.8284 39.8987 28.3937 39.696C28.6177 40.1547 28.9324 40.4907 29.3377 40.704C29.743 40.9067 30.287 41.008 30.9697 41.008C31.695 41.008 32.2924 40.8907 32.7617 40.656C33.2417 40.4213 33.4817 40.096 33.4817 39.68C33.4817 39.2533 33.2737 38.896 32.8577 38.608C32.4417 38.32 31.807 38.176 30.9537 38.176C30.399 38.176 29.8924 38.2773 29.4337 38.48C28.975 38.672 28.6444 38.9493 28.4417 39.312H24.7457C25.0017 38.2133 25.2257 37.0293 25.4177 35.76C25.6204 34.4907 25.743 33.3653 25.7857 32.384H37.0177V35.488C35.8337 35.4133 34.7137 35.3707 33.6577 35.36C32.6124 35.3387 31.1457 35.328 29.2577 35.328L29.0977 36.224C29.9084 35.9573 30.8417 35.824 31.8977 35.824Z" fill="#FFDC01"/>
</g>
<defs>
<filter id="filter0_d_2935_714" x="11.5" y="22.5" width="38" height="38" filterUnits="userSpaceOnUse" color-interpolation-filters="sRGB">
<feFlood flood-opacity="0" result="BackgroundImageFix"/>
<feColorMatrix in="SourceAlpha" type="matrix" values="0 0 0 0 0 0 0 0 0 0 0 0 0 0 0 0 0 0 127 0" result="hardAlpha"/>
<feOffset dy="4"/>
<feGaussianBlur stdDeviation="2"/>
<feComposite in2="hardAlpha" operator="out"/>
<feColorMatrix type="matrix" values="0 0 0 0 0 0 0 0 0 0 0 0 0 0 0 0 0 0 0.25 0"/>
<feBlend mode="normal" in2="BackgroundImageFix" result="effect1_dropShadow_2935_714"/>
<feBlend mode="normal" in="SourceGraphic" in2="effect1_dropShadow_2935_714" result="shape"/>
</filter>
<filter id="filter1_dd_2935_714" x="-8.5" y="0.5" width="78" height="78" filterUnits="userSpaceOnUse" color-interpolation-filters="sRGB">
<feFlood flood-opacity="0" result="BackgroundImageFix"/>
<feColorMatrix in="SourceAlpha" type="matrix" values="0 0 0 0 0 0 0 0 0 0 0 0 0 0 0 0 0 0 127 0" result="hardAlpha"/>
<feOffset dy="2"/>
<feGaussianBlur stdDeviation="12"/>
<feColorMatrix type="matrix" values="0 0 0 0 0 0 0 0 0 0 0 0 0 0 0 0 0 0 0.08 0"/>
<feBlend mode="normal" in2="BackgroundImageFix" result="effect1_dropShadow_2935_714"/>
<feColorMatrix in="SourceAlpha" type="matrix" values="0 0 0 0 0 0 0 0 0 0 0 0 0 0 0 0 0 0 127 0" result="hardAlpha"/>
<feOffset/>
<feGaussianBlur stdDeviation="1"/>
<feColorMatrix type="matrix" values="0 0 0 0 0 0 0 0 0 0 0 0 0 0 0 0 0 0 0.08 0"/>
<feBlend mode="normal" in2="effect1_dropShadow_2935_714" result="effect2_dropShadow_2935_714"/>
<feBlend mode="normal" in="SourceGraphic" in2="effect2_dropShadow_2935_714" result="shape"/>
</filter>
</defs>
</svg>
