<svg width="146" height="77" viewBox="0 0 146 77" fill="none" xmlns="http://www.w3.org/2000/svg">
<g filter="url(#filter0_d_2935_730)">
<g filter="url(#filter1_dd_2935_730)">
<path d="M25 36.5C25 29.0442 31.0442 23 38.5 23H107.669C115.124 23 121.169 29.0442 121.169 36.5C121.169 43.9558 115.124 50 107.669 50H38.5C31.0441 50 25 43.9558 25 36.5Z" fill="#8130A7"/>
<path d="M25 36.5C25 29.0442 31.0442 23 38.5 23H107.669C115.124 23 121.169 29.0442 121.169 36.5C121.169 43.9558 115.124 50 107.669 50H38.5C31.0441 50 25 43.9558 25 36.5Z" stroke="black"/>
</g>
<path d="M38.76 39.12C36.952 39.12 35.62 38.736 34.764 37.968C33.908 37.2 33.48 36.104 33.48 34.68C33.48 33.248 33.908 32.116 34.764 31.284C35.62 30.452 36.952 30.036 38.76 30.036C41.288 30.036 42.98 30.904 43.836 32.64C43.116 32.888 42.272 33.26 41.304 33.756C41.072 33.308 40.704 32.976 40.2 32.76C39.704 32.544 39.196 32.436 38.676 32.436C37.908 32.436 37.336 32.64 36.96 33.048C36.584 33.448 36.396 33.944 36.396 34.536C36.396 35.176 36.596 35.7 36.996 36.108C37.404 36.508 38.024 36.708 38.856 36.708C39.52 36.708 40.048 36.6 40.44 36.384C40.832 36.16 41.12 35.808 41.304 35.328C41.96 35.68 42.8 36.076 43.824 36.516C43.424 37.484 42.756 38.16 41.82 38.544C40.884 38.928 39.864 39.12 38.76 39.12ZM51.6743 34.704C50.4743 34.672 49.6023 34.652 49.0583 34.644V39H46.5143V34.644C45.9783 34.652 45.1103 34.672 43.9103 34.704V32.448H51.6743V34.704ZM59.4418 37.008C59.4418 37.28 59.4738 37.472 59.5378 37.584C59.6018 37.696 59.7298 37.776 59.9218 37.824L59.8738 38.952C59.6178 38.992 59.3938 39.02 59.2018 39.036C59.0178 39.052 58.7698 39.06 58.4578 39.06C57.7698 39.06 57.3138 38.908 57.0898 38.604C56.8658 38.292 56.7538 37.896 56.7538 37.416V37.116C56.5218 37.772 56.1818 38.26 55.7338 38.58C55.2938 38.9 54.7298 39.06 54.0418 39.06C53.2418 39.06 52.6378 38.9 52.2298 38.58C51.8298 38.26 51.6298 37.784 51.6298 37.152C51.6298 36.632 51.8018 36.224 52.1458 35.928C52.4898 35.632 53.0218 35.428 53.7418 35.316C53.1338 34.884 52.5258 34.508 51.9178 34.188C52.3978 33.58 52.9458 33.12 53.5618 32.808C54.1778 32.488 54.9258 32.328 55.8058 32.328C57.0378 32.328 57.9498 32.596 58.5418 33.132C59.1418 33.66 59.4418 34.476 59.4418 35.58V37.008ZM56.0578 34.44C55.6498 34.44 55.2898 34.508 54.9778 34.644C54.6658 34.78 54.3858 34.984 54.1378 35.256C54.6178 35.2 55.2178 35.172 55.9378 35.172C56.2338 35.172 56.4418 35.136 56.5618 35.064C56.6818 34.992 56.7418 34.9 56.7418 34.788C56.7418 34.692 56.6818 34.612 56.5618 34.548C56.4418 34.476 56.2738 34.44 56.0578 34.44ZM54.7978 37.104C55.2458 37.104 55.6498 37.02 56.0098 36.852C56.3698 36.676 56.6178 36.448 56.7538 36.168V35.856C56.5618 35.952 56.3498 36.028 56.1178 36.084C55.8858 36.132 55.6058 36.18 55.2778 36.228L54.8458 36.3C54.3978 36.388 54.1738 36.54 54.1738 36.756C54.1738 36.988 54.3818 37.104 54.7978 37.104ZM65.4784 32.328C65.9984 32.328 66.4664 32.476 66.8824 32.772C67.2984 33.068 67.6224 33.472 67.8544 33.984C68.0864 34.488 68.2024 35.044 68.2024 35.652C68.2024 36.252 68.0864 36.82 67.8544 37.356C67.6224 37.884 67.2944 38.312 66.8704 38.64C66.4544 38.96 65.9784 39.12 65.4424 39.12C64.8184 39.12 64.2824 38.992 63.8344 38.736C63.3944 38.472 63.0664 38.068 62.8504 37.524C62.8504 37.98 62.8664 38.712 62.8984 39.72C62.9304 40.696 62.9464 41.384 62.9464 41.784H60.2344C60.2824 40.296 60.3064 38.74 60.3064 37.116C60.3064 35.492 60.2824 33.936 60.2344 32.448H62.5384L62.8864 33.948C63.1104 33.388 63.4464 32.98 63.8944 32.724C64.3424 32.46 64.8704 32.328 65.4784 32.328ZM64.1944 36.96C64.5544 36.96 64.8544 36.848 65.0944 36.624C65.3424 36.392 65.4664 36.092 65.4664 35.724C65.4664 35.316 65.3544 34.984 65.1304 34.728C64.9064 34.472 64.6024 34.344 64.2184 34.344C63.7784 34.344 63.4464 34.452 63.2224 34.668C62.9984 34.876 62.8864 35.228 62.8864 35.724C62.8864 36.004 62.9584 36.24 63.1024 36.432C63.2464 36.616 63.4184 36.752 63.6184 36.84C63.8184 36.92 64.0104 36.96 64.1944 36.96ZM75.9209 34.704C74.7209 34.672 73.8489 34.652 73.3049 34.644V39H70.7609V34.644C70.2249 34.652 69.3569 34.672 68.1569 34.704V32.448H75.9209V34.704ZM85.5008 32.448C85.4608 33.608 85.4408 34.656 85.4408 35.592C85.4408 36.512 85.4608 37.56 85.5008 38.736H83.0408L83.1728 34.584L81.3368 38.736H77.9888C78.0368 37.68 78.0608 36.632 78.0608 35.592C78.0608 34.536 78.0368 33.488 77.9888 32.448H80.3528L80.2328 36.708L82.0688 32.448H85.5008ZM88.6074 39H86.0514C86.0914 38.08 86.1114 36.988 86.1114 35.724C86.1114 34.452 86.0914 33.36 86.0514 32.448H92.7954C92.7874 32.728 92.7834 33.288 92.7834 34.128V34.776H88.6074V39ZM98.1042 32.328C98.6242 32.328 99.0922 32.476 99.5082 32.772C99.9242 33.068 100.248 33.472 100.48 33.984C100.712 34.488 100.828 35.044 100.828 35.652C100.828 36.252 100.712 36.82 100.48 37.356C100.248 37.884 99.9202 38.312 99.4962 38.64C99.0802 38.96 98.6042 39.12 98.0682 39.12C97.4442 39.12 96.9082 38.992 96.4602 38.736C96.0202 38.472 95.6922 38.068 95.4762 37.524C95.4762 37.98 95.4922 38.712 95.5242 39.72C95.5562 40.696 95.5722 41.384 95.5722 41.784H92.8602C92.9082 40.296 92.9322 38.74 92.9322 37.116C92.9322 35.492 92.9082 33.936 92.8602 32.448H95.1642L95.5122 33.948C95.7362 33.388 96.0722 32.98 96.5202 32.724C96.9682 32.46 97.4962 32.328 98.1042 32.328ZM96.8202 36.96C97.1802 36.96 97.4802 36.848 97.7202 36.624C97.9682 36.392 98.0922 36.092 98.0922 35.724C98.0922 35.316 97.9802 34.984 97.7562 34.728C97.5322 34.472 97.2282 34.344 96.8442 34.344C96.4042 34.344 96.0722 34.452 95.8482 34.668C95.6242 34.876 95.5122 35.228 95.5122 35.724C95.5122 36.004 95.5842 36.24 95.7282 36.432C95.8722 36.616 96.0442 36.752 96.2442 36.84C96.4442 36.92 96.6362 36.96 96.8202 36.96ZM105.427 33.912C106.619 33.912 107.451 34.148 107.923 34.62C108.395 35.084 108.631 35.732 108.631 36.564C108.631 37.34 108.395 37.94 107.923 38.364C107.459 38.78 106.627 38.988 105.427 38.988H103.831V39H101.263C101.303 38.088 101.323 36.996 101.323 35.724C101.323 34.452 101.303 33.36 101.263 32.448H103.831V33.912H105.427ZM111.727 32.448C111.687 33.344 111.667 34.432 111.667 35.712C111.667 36.984 111.687 38.072 111.727 38.976H109.099C109.123 37.368 109.135 36.016 109.135 34.92C109.135 33.824 109.123 33 109.099 32.448H111.727ZM104.707 37.08C105.275 37.08 105.671 37.036 105.895 36.948C106.119 36.86 106.231 36.688 106.231 36.432C106.231 36.176 106.115 36.004 105.883 35.916C105.651 35.82 105.259 35.772 104.707 35.772L103.831 35.784V37.08H104.707Z" fill="#FAFF00"/>
</g>
<defs>
<filter id="filter0_d_2935_730" x="20.5" y="22.5" width="105.169" height="36" filterUnits="userSpaceOnUse" color-interpolation-filters="sRGB">
<feFlood flood-opacity="0" result="BackgroundImageFix"/>
<feColorMatrix in="SourceAlpha" type="matrix" values="0 0 0 0 0 0 0 0 0 0 0 0 0 0 0 0 0 0 127 0" result="hardAlpha"/>
<feOffset dy="4"/>
<feGaussianBlur stdDeviation="2"/>
<feComposite in2="hardAlpha" operator="out"/>
<feColorMatrix type="matrix" values="0 0 0 0 0 0 0 0 0 0 0 0 0 0 0 0 0 0 0.25 0"/>
<feBlend mode="normal" in2="BackgroundImageFix" result="effect1_dropShadow_2935_730"/>
<feBlend mode="normal" in="SourceGraphic" in2="effect1_dropShadow_2935_730" result="shape"/>
</filter>
<filter id="filter1_dd_2935_730" x="0.5" y="0.5" width="145.169" height="76" filterUnits="userSpaceOnUse" color-interpolation-filters="sRGB">
<feFlood flood-opacity="0" result="BackgroundImageFix"/>
<feColorMatrix in="SourceAlpha" type="matrix" values="0 0 0 0 0 0 0 0 0 0 0 0 0 0 0 0 0 0 127 0" result="hardAlpha"/>
<feOffset dy="2"/>
<feGaussianBlur stdDeviation="12"/>
<feColorMatrix type="matrix" values="0 0 0 0 0 0 0 0 0 0 0 0 0 0 0 0 0 0 0.08 0"/>
<feBlend mode="normal" in2="BackgroundImageFix" result="effect1_dropShadow_2935_730"/>
<feColorMatrix in="SourceAlpha" type="matrix" values="0 0 0 0 0 0 0 0 0 0 0 0 0 0 0 0 0 0 127 0" result="hardAlpha"/>
<feOffset/>
<feGaussianBlur stdDeviation="1"/>
<feColorMatrix type="matrix" values="0 0 0 0 0 0 0 0 0 0 0 0 0 0 0 0 0 0 0.08 0"/>
<feBlend mode="normal" in2="effect1_dropShadow_2935_730" result="effect2_dropShadow_2935_730"/>
<feBlend mode="normal" in="SourceGraphic" in2="effect2_dropShadow_2935_730" result="shape"/>
</filter>
</defs>
</svg>
