<svg width="30" height="30" viewBox="0 0 30 30" fill="none" xmlns="http://www.w3.org/2000/svg">
<g clip-path="url(#clip0_3106_116)">
<path fill-rule="evenodd" clip-rule="evenodd" d="M15 30C23.2843 30 30 23.2843 30 15C30 6.71573 23.2843 0 15 0C6.71573 0 0 6.71573 0 15C0 23.2843 6.71573 30 15 30ZM22.5821 11.3321C22.9726 10.9416 22.9726 10.3084 22.5821 9.91789C22.1916 9.52737 21.5584 9.52737 21.1679 9.91789L12.5 18.5858L8.83211 14.9179C8.44158 14.5274 7.80842 14.5274 7.41789 14.9179C7.02737 15.3084 7.02737 15.9416 7.41789 16.3321L11.7929 20.7071C12.1834 21.0976 12.8166 21.0976 13.2071 20.7071L22.5821 11.3321Z" fill="white"/>
</g>
<defs>
<clipPath id="clip0_3106_116">
<rect width="30" height="30" fill="white"/>
</clipPath>
</defs>
</svg>
