<svg width="70" height="79" viewBox="0 0 70 79" fill="none" xmlns="http://www.w3.org/2000/svg">
<g filter="url(#filter0_d_2935_708)">
<g filter="url(#filter1_dd_2935_708)">
<path d="M16 37.5C16 29.4919 22.4919 23 30.5 23C38.5081 23 45 29.4919 45 37.5C45 45.5081 38.5081 52 30.5 52C22.4919 52 16 45.5081 16 37.5Z" fill="#8130A7"/>
<path d="M16 37.5C16 29.4919 22.4919 23 30.5 23C38.5081 23 45 29.4919 45 37.5C45 45.5081 38.5081 52 30.5 52C22.4919 52 16 45.5081 16 37.5Z" stroke="black"/>
</g>
<path d="M33.5211 38.112C33.9051 38.0373 34.2838 38 34.6571 38C35.3078 38 35.8358 38.112 36.2411 38.336C36.6571 38.5493 36.9558 38.8267 37.1371 39.168C37.3185 39.4987 37.4091 39.8453 37.4091 40.208C37.4091 41.0507 37.1318 41.7707 36.5771 42.368C36.0225 42.9547 35.2705 43.4027 34.3211 43.712C33.3718 44.0107 32.3158 44.16 31.1531 44.16C27.7825 44.16 25.6011 42.9867 24.6091 40.64L25.5051 40.416C26.1665 40.256 26.7265 40.1067 27.1851 39.968C27.6545 39.8187 28.0651 39.6533 28.4171 39.472C28.6305 40.0053 28.9345 40.3893 29.3291 40.624C29.7345 40.848 30.2891 40.96 30.9931 40.96C31.7398 40.96 32.3478 40.8747 32.8171 40.704C33.2865 40.5333 33.5211 40.2773 33.5211 39.936C33.5211 39.7547 33.4305 39.616 33.2491 39.52C33.0678 39.424 32.7798 39.36 32.3851 39.328C31.9905 39.2853 31.4358 39.264 30.7211 39.264H29.5051V36.464H30.2411C31.0518 36.464 31.7131 36.432 32.2251 36.368C32.7371 36.2933 32.9931 36.1387 32.9931 35.904C32.9931 35.6373 32.8545 35.424 32.5771 35.264C32.3105 35.0933 31.8891 35.008 31.3131 35.008C30.5665 35.008 29.9585 35.1627 29.4891 35.472C29.0305 35.7813 28.6731 36.2293 28.4171 36.816C27.2758 36.3573 26.0598 36.032 24.7691 35.84C25.2811 34.688 26.0651 33.7973 27.1211 33.168C28.1878 32.5387 29.5585 32.224 31.2331 32.224C32.3211 32.224 33.2971 32.368 34.1611 32.656C35.0358 32.9333 35.7185 33.3227 36.2091 33.824C36.7105 34.3253 36.9611 34.8853 36.9611 35.504C36.9611 35.8667 36.8758 36.192 36.7051 36.48C36.5345 36.7573 36.1985 37.0347 35.6971 37.312C35.1958 37.5787 34.4705 37.8453 33.5211 38.112Z" fill="#FFDC01"/>
</g>
<defs>
<filter id="filter0_d_2935_708" x="11.5" y="22.5" width="38" height="38" filterUnits="userSpaceOnUse" color-interpolation-filters="sRGB">
<feFlood flood-opacity="0" result="BackgroundImageFix"/>
<feColorMatrix in="SourceAlpha" type="matrix" values="0 0 0 0 0 0 0 0 0 0 0 0 0 0 0 0 0 0 127 0" result="hardAlpha"/>
<feOffset dy="4"/>
<feGaussianBlur stdDeviation="2"/>
<feComposite in2="hardAlpha" operator="out"/>
<feColorMatrix type="matrix" values="0 0 0 0 0 0 0 0 0 0 0 0 0 0 0 0 0 0 0.25 0"/>
<feBlend mode="normal" in2="BackgroundImageFix" result="effect1_dropShadow_2935_708"/>
<feBlend mode="normal" in="SourceGraphic" in2="effect1_dropShadow_2935_708" result="shape"/>
</filter>
<filter id="filter1_dd_2935_708" x="-8.5" y="0.5" width="78" height="78" filterUnits="userSpaceOnUse" color-interpolation-filters="sRGB">
<feFlood flood-opacity="0" result="BackgroundImageFix"/>
<feColorMatrix in="SourceAlpha" type="matrix" values="0 0 0 0 0 0 0 0 0 0 0 0 0 0 0 0 0 0 127 0" result="hardAlpha"/>
<feOffset dy="2"/>
<feGaussianBlur stdDeviation="12"/>
<feColorMatrix type="matrix" values="0 0 0 0 0 0 0 0 0 0 0 0 0 0 0 0 0 0 0.08 0"/>
<feBlend mode="normal" in2="BackgroundImageFix" result="effect1_dropShadow_2935_708"/>
<feColorMatrix in="SourceAlpha" type="matrix" values="0 0 0 0 0 0 0 0 0 0 0 0 0 0 0 0 0 0 127 0" result="hardAlpha"/>
<feOffset/>
<feGaussianBlur stdDeviation="1"/>
<feColorMatrix type="matrix" values="0 0 0 0 0 0 0 0 0 0 0 0 0 0 0 0 0 0 0.08 0"/>
<feBlend mode="normal" in2="effect1_dropShadow_2935_708" result="effect2_dropShadow_2935_708"/>
<feBlend mode="normal" in="SourceGraphic" in2="effect2_dropShadow_2935_708" result="shape"/>
</filter>
</defs>
</svg>
