<svg width="58" height="58" viewBox="0 0 58 58" fill="none" xmlns="http://www.w3.org/2000/svg">
<g clip-path="url(#clip0_3106_110)">
<path d="M29 58C45.0163 58 58 45.0163 58 29C58 12.9837 45.0163 0 29 0C12.9837 0 0 12.9837 0 29C0 45.0163 12.9837 58 29 58Z" fill="#8130A7"/>
<g filter="url(#filter0_i_3106_110)">
<path d="M54 28.5C54 14.955 42.7857 4 29 4C15.1786 4 4 14.955 4 28.5C4 42.045 15.1786 53 29 53C42.7857 53 54 42.045 54 28.5ZM31.5 33.68H25.9286V32.175C25.9286 30.845 26.2143 29.725 26.7857 28.745C27.3571 27.765 28.4286 26.75 29.9286 25.63C31.3929 24.615 32.3571 23.775 32.8214 23.145C33.3214 22.515 33.5357 21.78 33.5357 20.975C33.5357 20.1 33.2143 19.435 32.5357 18.945C31.8571 18.49 30.9286 18.28 29.7143 18.28C27.6429 18.28 25.25 18.945 22.5714 20.275L20.2857 15.795C23.3929 14.08 26.7143 13.205 30.1786 13.205C33.0714 13.205 35.3571 13.905 37.0357 15.235C38.75 16.6 39.5714 18.42 39.5714 20.66C39.5714 22.165 39.25 23.46 38.5357 24.545C37.8571 25.665 36.5 26.89 34.5714 28.255C33.2143 29.235 32.3929 29.97 32.0357 30.46C31.6786 30.985 31.5 31.65 31.5 32.455V33.68ZM26.25 43.27C25.6071 42.675 25.2857 41.8 25.2857 40.715C25.2857 39.56 25.5714 38.685 26.2143 38.09C26.8571 37.495 27.75 37.215 28.9643 37.215C30.1071 37.215 31 37.53 31.6429 38.125C32.2857 38.72 32.6071 39.595 32.6071 40.715C32.6071 41.765 32.2857 42.64 31.6429 43.235C31 43.865 30.1071 44.18 28.9643 44.18C27.7857 44.18 26.8929 43.865 26.25 43.27Z" fill="#FAFF00"/>
</g>
</g>
<defs>
<filter id="filter0_i_3106_110" x="4" y="4" width="50" height="53" filterUnits="userSpaceOnUse" color-interpolation-filters="sRGB">
<feFlood flood-opacity="0" result="BackgroundImageFix"/>
<feBlend mode="normal" in="SourceGraphic" in2="BackgroundImageFix" result="shape"/>
<feColorMatrix in="SourceAlpha" type="matrix" values="0 0 0 0 0 0 0 0 0 0 0 0 0 0 0 0 0 0 127 0" result="hardAlpha"/>
<feOffset dy="4"/>
<feGaussianBlur stdDeviation="2"/>
<feComposite in2="hardAlpha" operator="arithmetic" k2="-1" k3="1"/>
<feColorMatrix type="matrix" values="0 0 0 0 0 0 0 0 0 0 0 0 0 0 0 0 0 0 0.25 0"/>
<feBlend mode="normal" in2="shape" result="effect1_innerShadow_3106_110"/>
</filter>
<clipPath id="clip0_3106_110">
<rect width="58" height="58" fill="white"/>
</clipPath>
</defs>
</svg>
