<svg width="70" height="79" viewBox="0 0 70 79" fill="none" xmlns="http://www.w3.org/2000/svg">
<g filter="url(#filter0_d_2935_711)">
<g filter="url(#filter1_dd_2935_711)">
<path d="M16 37.5C16 29.4919 22.4919 23 30.5 23C38.5081 23 45 29.4919 45 37.5C45 45.5081 38.5081 52 30.5 52C22.4919 52 16 45.5081 16 37.5Z" fill="#8130A7"/>
<path d="M16 37.5C16 29.4919 22.4919 23 30.5 23C38.5081 23 45 29.4919 45 37.5C45 45.5081 38.5081 52 30.5 52C22.4919 52 16 45.5081 16 37.5Z" stroke="black"/>
</g>
<path d="M37.7534 38.96V41.968H35.5774V44H31.7534C31.796 43.552 31.828 42.8747 31.8494 41.968H24.2494V38.736C26.7347 36.8267 28.9534 34.7093 30.9054 32.384H35.5774V38.96H37.7534ZM31.9294 35.552C31.1934 36.3093 30.5587 36.944 30.0254 37.456C29.492 37.9573 28.8894 38.4587 28.2174 38.96H31.8814L31.9294 35.552Z" fill="#FFDC01"/>
</g>
<defs>
<filter id="filter0_d_2935_711" x="11.5" y="22.5" width="38" height="38" filterUnits="userSpaceOnUse" color-interpolation-filters="sRGB">
<feFlood flood-opacity="0" result="BackgroundImageFix"/>
<feColorMatrix in="SourceAlpha" type="matrix" values="0 0 0 0 0 0 0 0 0 0 0 0 0 0 0 0 0 0 127 0" result="hardAlpha"/>
<feOffset dy="4"/>
<feGaussianBlur stdDeviation="2"/>
<feComposite in2="hardAlpha" operator="out"/>
<feColorMatrix type="matrix" values="0 0 0 0 0 0 0 0 0 0 0 0 0 0 0 0 0 0 0.25 0"/>
<feBlend mode="normal" in2="BackgroundImageFix" result="effect1_dropShadow_2935_711"/>
<feBlend mode="normal" in="SourceGraphic" in2="effect1_dropShadow_2935_711" result="shape"/>
</filter>
<filter id="filter1_dd_2935_711" x="-8.5" y="0.5" width="78" height="78" filterUnits="userSpaceOnUse" color-interpolation-filters="sRGB">
<feFlood flood-opacity="0" result="BackgroundImageFix"/>
<feColorMatrix in="SourceAlpha" type="matrix" values="0 0 0 0 0 0 0 0 0 0 0 0 0 0 0 0 0 0 127 0" result="hardAlpha"/>
<feOffset dy="2"/>
<feGaussianBlur stdDeviation="12"/>
<feColorMatrix type="matrix" values="0 0 0 0 0 0 0 0 0 0 0 0 0 0 0 0 0 0 0.08 0"/>
<feBlend mode="normal" in2="BackgroundImageFix" result="effect1_dropShadow_2935_711"/>
<feColorMatrix in="SourceAlpha" type="matrix" values="0 0 0 0 0 0 0 0 0 0 0 0 0 0 0 0 0 0 127 0" result="hardAlpha"/>
<feOffset/>
<feGaussianBlur stdDeviation="1"/>
<feColorMatrix type="matrix" values="0 0 0 0 0 0 0 0 0 0 0 0 0 0 0 0 0 0 0.08 0"/>
<feBlend mode="normal" in2="effect1_dropShadow_2935_711" result="effect2_dropShadow_2935_711"/>
<feBlend mode="normal" in="SourceGraphic" in2="effect2_dropShadow_2935_711" result="shape"/>
</filter>
</defs>
</svg>
