<svg width="70" height="79" viewBox="0 0 70 79" fill="none" xmlns="http://www.w3.org/2000/svg">
<g filter="url(#filter0_d_2935_717)">
<g filter="url(#filter1_dd_2935_717)">
<path d="M16 37.5C16 29.4919 22.4919 23 30.5 23C38.5081 23 45 29.4919 45 37.5C45 45.5081 38.5081 52 30.5 52C22.4919 52 16 45.5081 16 37.5Z" fill="#8130A7"/>
<path d="M16 37.5C16 29.4919 22.4919 23 30.5 23C38.5081 23 45 29.4919 45 37.5C45 45.5081 38.5081 52 30.5 52C22.4919 52 16 45.5081 16 37.5Z" stroke="black"/>
</g>
<path d="M32.6604 36.064C33.5031 36.064 34.2711 36.24 34.9644 36.592C35.6578 36.9333 36.2018 37.3973 36.5964 37.984C37.0018 38.5707 37.2044 39.2 37.2044 39.872C37.2044 40.7467 36.9271 41.5093 36.3724 42.16C35.8178 42.8107 35.0658 43.3067 34.1164 43.648C33.1671 43.9893 32.1058 44.16 30.9324 44.16C29.7378 44.16 28.6711 43.9253 27.7324 43.456C26.8044 42.976 26.0791 42.3147 25.5564 41.472C25.0444 40.6293 24.7884 39.6693 24.7884 38.592C24.7884 36.448 25.3804 34.8533 26.5644 33.808C27.7591 32.752 29.3644 32.224 31.3804 32.224C33.8338 32.224 35.7698 32.8427 37.1884 34.08C36.5484 34.7627 35.9618 35.5147 35.4284 36.336C35.0018 36.016 34.3991 35.76 33.6204 35.568C32.8524 35.3653 32.1644 35.264 31.5564 35.264C30.6284 35.264 29.8498 35.4987 29.2204 35.968C28.5911 36.4267 28.2071 37.088 28.0684 37.952C28.0578 38.0053 28.0524 38.08 28.0524 38.176C28.5644 37.4293 29.2364 36.8907 30.0684 36.56C30.9111 36.2293 31.7751 36.064 32.6604 36.064ZM31.0924 41.12C31.4978 41.12 31.8764 41.0667 32.2284 40.96C32.5804 40.8427 32.8578 40.688 33.0604 40.496C33.2631 40.2933 33.3644 40.08 33.3644 39.856C33.3644 39.504 33.1404 39.2053 32.6924 38.96C32.2551 38.704 31.7218 38.576 31.0924 38.576C30.4631 38.576 29.9244 38.704 29.4764 38.96C29.0391 39.2053 28.8204 39.504 28.8204 39.856C28.8204 40.08 28.9218 40.2933 29.1244 40.496C29.3271 40.688 29.6044 40.8427 29.9564 40.96C30.3084 41.0667 30.6871 41.12 31.0924 41.12Z" fill="#FFDC01"/>
</g>
<defs>
<filter id="filter0_d_2935_717" x="11.5" y="22.5" width="38" height="38" filterUnits="userSpaceOnUse" color-interpolation-filters="sRGB">
<feFlood flood-opacity="0" result="BackgroundImageFix"/>
<feColorMatrix in="SourceAlpha" type="matrix" values="0 0 0 0 0 0 0 0 0 0 0 0 0 0 0 0 0 0 127 0" result="hardAlpha"/>
<feOffset dy="4"/>
<feGaussianBlur stdDeviation="2"/>
<feComposite in2="hardAlpha" operator="out"/>
<feColorMatrix type="matrix" values="0 0 0 0 0 0 0 0 0 0 0 0 0 0 0 0 0 0 0.25 0"/>
<feBlend mode="normal" in2="BackgroundImageFix" result="effect1_dropShadow_2935_717"/>
<feBlend mode="normal" in="SourceGraphic" in2="effect1_dropShadow_2935_717" result="shape"/>
</filter>
<filter id="filter1_dd_2935_717" x="-8.5" y="0.5" width="78" height="78" filterUnits="userSpaceOnUse" color-interpolation-filters="sRGB">
<feFlood flood-opacity="0" result="BackgroundImageFix"/>
<feColorMatrix in="SourceAlpha" type="matrix" values="0 0 0 0 0 0 0 0 0 0 0 0 0 0 0 0 0 0 127 0" result="hardAlpha"/>
<feOffset dy="2"/>
<feGaussianBlur stdDeviation="12"/>
<feColorMatrix type="matrix" values="0 0 0 0 0 0 0 0 0 0 0 0 0 0 0 0 0 0 0.08 0"/>
<feBlend mode="normal" in2="BackgroundImageFix" result="effect1_dropShadow_2935_717"/>
<feColorMatrix in="SourceAlpha" type="matrix" values="0 0 0 0 0 0 0 0 0 0 0 0 0 0 0 0 0 0 127 0" result="hardAlpha"/>
<feOffset/>
<feGaussianBlur stdDeviation="1"/>
<feColorMatrix type="matrix" values="0 0 0 0 0 0 0 0 0 0 0 0 0 0 0 0 0 0 0.08 0"/>
<feBlend mode="normal" in2="effect1_dropShadow_2935_717" result="effect2_dropShadow_2935_717"/>
<feBlend mode="normal" in="SourceGraphic" in2="effect2_dropShadow_2935_717" result="shape"/>
</filter>
</defs>
</svg>
